<svg xmlns="http://www.w3.org/2000/svg" viewBox="0 0 101.53 101.53"><defs><style>.cls-1,.cls-4{fill:none;}.cls-1{opacity:0.3;}.cls-2,.cls-3{fill:#fff;}.cls-3,.cls-4,.cls-5,.cls-7{stroke:#003f84;stroke-linecap:round;stroke-linejoin:round;stroke-width:2px;}.cls-5{fill:#e59203;}.cls-6,.cls-7{fill:#003f84;}</style></defs><g id="Layer_2" data-name="Layer 2"><g id="Layer_2-2" data-name="Layer 2"><rect class="cls-1" width="101.53" height="101.53"/><path class="cls-2" d="M74.52,57.71h0c1.76-.35,2.78-1.38,2.78-3.85,0-12.28-17.12-.29-17.12-11.51,0-3.22,2.86-10,3.13-13.71,1-13.83-7.9-12.57-7.9-12.57C55.39,32.62,48,41.78,39.22,47q-1.38.81-2.79,1.5c-1.25.61-2.51,1.15-3.78,1.63A60.29,60.29,0,0,1,22.05,53l-.71,28.11c13.49-.38,18.62-3,31.11,1.05,7.94,2.57,16.13,5.17,18.32-.82a5.57,5.57,0,0,0,0-4.36c2.78.08,4.66-1.1,5-4.48s-2-4.59-4.3-5.11c6,.81,8.11.59,9-2.71C81.5,60.51,77.65,58.27,74.52,57.71Z"/><path class="cls-3" d="M32.65,50.09A60.29,60.29,0,0,1,22.05,53l-.71,28.11c13.49-.38,18.62-3,31.11,1.05,7.94,2.57,16.13,5.17,18.32-.82C72.86,75.61,66.41,73,66.41,73"/><path class="cls-3" d="M63.83,57.29c7.79.22,13.45,2.42,13.45-3.43,0-12.28-17.12-.29-17.12-11.51,0-3.22,2.86-10,3.13-13.71,1-13.83-7.9-12.57-7.9-12.57C55.39,32.62,48,41.78,39.22,47"/><path class="cls-3" d="M68.74,67c2.4.23,7.49.67,7,5.49C75,79.17,68.3,77.21,60.51,74"/><path class="cls-4" d="M74.52,57.71c3.13.56,7,2.8,5.89,6.93S76.07,68,65.28,66.45"/><path class="cls-5" d="M34.8,81.64s-11.65,2.72-14.55,0,0-34.29,0-34.29,13.08-2.81,14.55,0S34.8,81.64,34.8,81.64Z"/><circle class="cls-6" cx="41.01" cy="32.46" r="3.44"/><circle class="cls-6" cx="79.92" cy="82.85" r="2.64"/><circle class="cls-6" cx="32.46" cy="38.08" r="2.13"/><path class="cls-7" d="M19.64,70.8s7.23-1.17,9,0,0,6.15,0,6.15h-9C18.75,77,19.64,70.8,19.64,70.8Z"/></g></g></svg>