<svg xmlns="http://www.w3.org/2000/svg" viewBox="0 0 101.53 101.53"><defs><style>.cls-1,.cls-2{fill:none;}.cls-1{opacity:0.3;}.cls-2,.cls-3,.cls-4,.cls-5{stroke:#003f84;stroke-linecap:round;stroke-linejoin:round;stroke-width:2px;}.cls-3{fill:#fff;}.cls-4{fill:#e59203;}.cls-5{fill:#003f84;}</style></defs><g id="Layer_2" data-name="Layer 2"><g id="Layer_2-2" data-name="Layer 2"><rect class="cls-1" width="101.53" height="101.53"/><path class="cls-2" d="M82.45,79.66l-.32.3-.29.28-.28.27-.33.3-.42.37c-.15.13-.28.25-.41.35l-.38.32-.4.33-.43.33-.45.34-.45.34-.43.32-.42.29a4.56,4.56,0,0,1-.39.27l-.42.29-.49.31-.56.36-.64.38-.66.4-.63.36-.62.34-.58.3-.58.29-.56.28-.56.25-.55.25-.54.24-.56.23-.57.22-.58.22-.61.21-.65.22-.7.23-.75.22-.69.2L64,90l-.42.11-.43.11-.44.1-.46.1-.46.1-.45.1-.53.11-.67.13-.67.12-.56.09-.5.07-.49.07-.48.06-.47,0-.51.05-.63,0-.63,0-.51,0-.43,0-.44,0-.54,0-.71,0H51.12l-.66,0h-.59l-.53,0-.46,0-.44,0-.49,0-.52,0-.57-.05-.57-.06-.55-.07-.53-.07-.51-.07L44.21,91l-.47-.08-.45-.07-.42-.08-.49-.1-.54-.13-.46-.11L41,90.35l-.45-.11L40,90.11,39.56,90l-.46-.12-.43-.11-.49-.14-.61-.18L37,89.26l-.56-.19-.6-.22-.65-.24-.7-.27-.71-.3-.71-.3-.71-.32-.7-.33-.7-.35-.71-.37-.72-.4-.72-.41-.69-.41-.62-.38-.54-.34-.46-.3-.43-.3-.44-.31-.45-.33-.47-.36-.5-.39L23.7,82l-.38-.32L23,81.45l-.33-.29-.34-.3L22,80.54l-.34-.31-.33-.3L21,79.62l-.31-.3c-.11-.1-.23-.23-.38-.38s-.32-.32-.5-.51l-.56-.6c-.18-.2-.35-.38-.48-.54s-.25-.29-.35-.39l-.27-.32-.27-.33-.28-.33-.27-.34-.27-.35-.27-.35-.26-.36-.27-.36L16,73.79c-.09-.13-.18-.25-.26-.38L15.45,73l-.25-.37-.29-.43-.35-.52-.31-.5c-.09-.14-.17-.27-.23-.38s-.14-.22-.21-.34l-.22-.4-.25-.46c-.08-.16-.17-.32-.27-.5l-.28-.55L12.51,68c-.09-.19-.19-.39-.28-.6s-.19-.41-.29-.62-.19-.43-.28-.65-.19-.43-.28-.65-.18-.45-.26-.67-.18-.46-.26-.69-.17-.46-.25-.7l-.24-.75L10.16,62l-.15-.5c0-.14-.08-.27-.11-.41s-.08-.27-.11-.4-.08-.29-.13-.47-.1-.37-.15-.58-.1-.39-.13-.56-.08-.31-.1-.45-.06-.28-.09-.47l-.09-.54c0-.18,0-.33-.07-.46s0-.27,0-.42,0-.29-.06-.45,0-.32-.07-.49l-.06-.5c0-.16,0-.31,0-.46s0-.3-.05-.44,0-.31,0-.51,0-.4-.05-.62,0-.43,0-.61,0-.36,0-.52,0-.32,0-.46,0-.28,0-.41v-.7c0-.13,0-.27,0-.43s0-.32,0-.5,0-.38,0-.59,0-.42,0-.64l.06-.7c0-.24,0-.49.07-.75s.06-.53.09-.81l.09-.8c0-.25.07-.49.1-.73s.06-.45.1-.66.06-.41.09-.6.07-.39.11-.6.08-.44.13-.68.09-.46.13-.66.08-.37.1-.51.06-.28.09-.42.07-.29.1-.44.06-.3.1-.46.06-.31.1-.47.07-.32.11-.48.07-.33.11-.49l.12-.51a4.87,4.87,0,0,1,.12-.52l.12-.54"/><path class="cls-2" d="M82.88,79.34l-.33.74c-.1.22-.17.37-.19.43L82,81.3c-.21.47-.46,1-.73,1.59s-.46,1-.56,1.24-.23.47-.34.72-.18.39-.2.43l-.91,2"/><path class="cls-2" d="M82.73,79.34l-1,.25-.91.24-.68.17-.61.16-.81.2-.84.19-.68.16-.72.16-.77.17-.45.1-.47.11"/><path class="cls-2" d="M74.76,81.29c.12.18.26.41.43.69s.33.54.48.76.28.43.41.62l.26.39c0,.07.13.21.27.41s.28.4.44.61l.26.35.13.18.37.45.56.68.74.86"/><path class="cls-2" d="M79.05,85.87l.07-.16c0-.1.19-.43.44-1l.61-1.33c.16-.34.31-.67.47-1l.73-1.52"/><path class="cls-2" d="M78.43,85.59l.48-.82c.26-.46.49-.86.69-1.19l.5-.87.46-.8c.16-.3.47-.84.93-1.63"/><path class="cls-2" d="M77.79,84c.11-.11.31-.28.58-.52l1-.83.93-.79c.26-.22.58-.49.95-.82"/><path class="cls-2" d="M76.69,83.39l.81-.53.94-.62.68-.45.64-.42.64-.43.6-.4"/><path class="cls-2" d="M76.12,82.69l.42-.2c.17-.09.57-.26,1.19-.53l1.4-.63.71-.33"/><path class="cls-2" d="M17,25.73c1.39-1.39,2.37-2.36,2.95-2.91s1.24-1.16,2-1.82,1.62-1.37,2.6-2.13,1.93-1.44,2.83-2,1.58-1,2-1.28,1.15-.63,2.09-1.1,2.13-1,3.55-1.56,2.52-1,3.27-1.18,1.43-.41,2-.56,1.52-.33,2.74-.54,2.34-.38,3.37-.48S48.18,10,48.59,10s1.22,0,2.43,0,2.35.06,3.45.15,2,.19,2.81.3,1.58.25,2.4.42,1.83.4,3,.72,2.13.59,2.89.85,1.67.61,2.72,1,1.85.79,2.39,1.05,1.39.72,2.55,1.39,2.06,1.2,2.68,1.62,1.18.82,1.68,1.2,1.09.86,1.76,1.42S80.69,21.3,81.4,22s1.42,1.46,2.11,2.27,1.27,1.52,1.72,2.12.84,1.16,1.17,1.66.65,1,1,1.58.83,1.55,1.51,3,1.15,2.51,1.42,3.25.53,1.53.8,2.4.5,1.77.72,2.71.42,2,.61,3.19.33,2.41.43,3.66.15,2.25.16,3,0,1.57-.06,2.51-.1,1.8-.18,2.59-.22,1.71-.39,2.73S92.08,60.43,92,61s-.26,1.13-.44,1.79-.41,1.47-.7,2.42-.82,2.48-1.57,4.64"/><path class="cls-2" d="M16.94,25.88c.09-.27.17-.53.25-.76l.15-.44.29-.81c.17-.48.35-1,.57-1.63L18.64,21c.09-.24.17-.48.26-.73a3.77,3.77,0,0,0,.16-.45s.25-.72.71-2"/><path class="cls-2" d="M17.08,25.86l.91-.33.88-.32.64-.23.59-.21.78-.27.81-.27.65-.22.69-.23.74-.23.43-.14.45-.15"/><path class="cls-2" d="M24.73,23.21c-.13-.16-.3-.38-.49-.64l-.54-.7c-.16-.21-.31-.4-.46-.57L23,20.94l-.3-.37c-.15-.18-.32-.37-.5-.56l-.28-.32-.15-.16-.39-.41-.62-.62-.81-.78"/><path class="cls-2" d="M23.13,23.08l-.22.05-.6.19-.55.17-.42.13-1.45.52-1.95.7"/><path class="cls-2" d="M21.94,21.49c-.09.06-.33.25-.71.56l-.82.65-.61.49-1.32,1.06"/><path class="cls-2" d="M22.33,21l-.59.46L21.1,22l-.84.67-1,.82-.61.48"/><path class="cls-2" d="M23.76,22.2l-1.39.68L21,23.55l-1.82.9"/><path class="cls-2" d="M21.35,21.54l-.64.67-.86.92-1.19,1.25"/><path class="cls-2" d="M20.48,19.91c-.05.11-.14.32-.29.63l-.48,1.09c-.19.41-.38.84-.58,1.3s-.34.76-.41.91"/><path class="cls-2" d="M20.54,19.42c0,.1-.12.32-.24.66l-.5,1.4c-.22.6-.38,1.06-.5,1.39s-.25.71-.41,1.14"/><path class="cls-2" d="M20,19.63l-.16.58c-.09.28-.15.52-.21.7s-.1.35-.14.51l-.2.66c-.09.3-.19.63-.29,1"/><path class="cls-3" d="M51.88,42.29l16.88,6.37a8.33,8.33,0,0,1,4.85,10.72h0a8.34,8.34,0,0,1-10.72,4.85L32.77,52.88a8.36,8.36,0,0,1-4.85-10.73h0A8.35,8.35,0,0,1,38.64,37.3L48,40.83"/><path class="cls-4" d="M68.76,48.66,53.7,43c.23,2.29-5.85,11.79-5.87,15.57l15.06,5.68a8.32,8.32,0,0,0,5.87-15.57Z"/><path class="cls-5" d="M53.38,46.92s8.15,2.63,9.93,3.75a1.77,1.77,0,0,1-.78,2c-1.2.59-7.68-2.9-9.92-3.74C51.61,48.6,53.38,46.92,53.38,46.92Z"/></g></g></svg>