<svg xmlns="http://www.w3.org/2000/svg" viewBox="0 0 101.53 101.53"><defs><style>.cls-1{fill:none;opacity:0.3;}.cls-2,.cls-3{fill:#fff;}.cls-3,.cls-4,.cls-5{stroke:#003f84;stroke-linecap:round;stroke-linejoin:round;stroke-width:2px;}.cls-4{fill:#003f84;}.cls-5{fill:#e59203;}</style></defs><g id="Layer_2" data-name="Layer 2"><g id="Layer_2-2" data-name="Layer 2"><rect class="cls-1" width="101.53" height="101.53"/><path class="cls-2" d="M9.42,77.44C7.68,75.24,11,34.23,11,34.23s70-1,69.91,2.64c-.23,6,.38,42.33-1.63,43.2S11.15,79.64,9.42,77.44Z"/><path class="cls-3" d="M22.68,72.27c-2-1.94-4.54-43-4.54-43s69.18-11,69.57-7.33c.63,6,6.4,41.84,4.53,43S24.71,74.2,22.68,72.27Z"/><path class="cls-4" d="M88.86,31.17l.83,8.61c.12,1.26-66,7.54-68.45,6.57s-.83-8.61-.83-8.61S88.67,29.14,88.86,31.17Z"/><path class="cls-5" d="M70.63,59.69c-.43-.43-.8-9.42-.8-9.42S85,48.17,85.08,49c.12,1.32,1.22,9.18.8,9.43S71.07,60.12,70.63,59.69Z"/><path class="cls-3" d="M64.91,80.32C44.79,80.13,10.66,79,9.42,77.44,7.68,75.24,11,34.23,11,34.23s70-1,69.91,2.64c-.23,6,.38,42.33-1.63,43.2a14.52,14.52,0,0,1-2.66.21"/><path class="cls-4" d="M10.9,51.6,11.23,43c0-1.26,66.38,1.29,68.71,2.59s-.32,8.64-.32,8.64S10.83,53.64,10.9,51.6Z"/><path class="cls-5" d="M56.36,71.59c-.38-.48.36-9.45.36-9.45S72,61.91,72,62.71C72,64,72.1,72,71.65,72.16S56.74,72.07,56.36,71.59Z"/><path class="cls-5" d="M18.92,63.44c4-.43,23.78.89,27.4,1"/><path class="cls-5" d="M18.76,67.61c4-.43,23.79.9,27.4,1"/></g></g></svg>