<svg xmlns="http://www.w3.org/2000/svg" viewBox="0 0 125.83 101.53"><defs><style>.cls-1,.cls-7{fill:none;}.cls-1{opacity:0.3;}.cls-2,.cls-4{fill:#fff;}.cls-2,.cls-3,.cls-4,.cls-5,.cls-6,.cls-7{stroke:#003f84;}.cls-2,.cls-3,.cls-5,.cls-6,.cls-7{stroke-linecap:round;stroke-linejoin:round;}.cls-2,.cls-4,.cls-5,.cls-6,.cls-7{stroke-width:2px;}.cls-3,.cls-5{fill:#003f84;}.cls-3{stroke-width:4px;}.cls-4{stroke-miterlimit:10;}.cls-6{fill:#e59203;}</style></defs><g id="Layer_2" data-name="Layer 2"><g id="Layer_2-2" data-name="Layer 2"><rect class="cls-1" width="125.83" height="101.53"/><path class="cls-2" d="M119,57.74V73.79H86V31.58c6.72,0,10.72,0,14.64,4.14,3.27,3.46,5.43,11,8.8,14.57C111,51.86,119,53.55,119,57.74Z"/><path class="cls-3" d="M85.18,51.69V38c5,0,7.93,0,10.83,3.06,2.42,2.57,4,8.13,6.51,10.78C96.22,51.81,86.25,52.79,85.18,51.69Z"/><path class="cls-2" d="M28,39.54c0-8.38.15-15.27.85-16.31,1.92-2.88,55.34-.48,57.15,0s0,50.56,0,50.56-53.12,1.15-57.15,0c0,0-.12-2.86-.27-7.23"/><circle class="cls-4" cx="54.57" cy="72.81" r="6.88"/><circle class="cls-4" cx="102.52" cy="72.69" r="6.88"/><line class="cls-5" x1="6.84" y1="52.61" x2="42.14" y2="52.61"/><line class="cls-5" x1="12.34" y1="46.56" x2="56.15" y2="46.56"/><line class="cls-5" x1="15.27" y1="59.05" x2="48.02" y2="59.05"/><circle class="cls-6" cx="57.43" cy="46.09" r="15.92"/><path class="cls-7" d="M51.51,41.62c0,.18,0,1.64-.09,4.36v.53"/><path class="cls-7" d="M51.56,46.83l.51,0,.7-.07,1-.1,1-.08,1.13-.08"/><path class="cls-7" d="M55.7,41.59c0,.27.08.79.16,1.58s.15,1.74.23,2.85.13,1.94.15,2.45,0,1,.06,1.28,0,.79.09,1.35"/><path class="cls-7" d="M62.53,41.3l0,.25c0,.27-.06.49-.08.66s0,.34-.08.52-.07.4-.12.65-.1.47-.15.66-.11.37-.18.56-.12.33-.16.42-.11.21-.2.36-.22.36-.39.61l-.46.66c-.14.2-.28.41-.43.65l-.3.5a4.27,4.27,0,0,0-.21.61,2.38,2.38,0,0,0-.12.77,2.14,2.14,0,0,0,.08.58c0,.18.09.31.11.37a.55.55,0,0,0,.1.17,2.06,2.06,0,0,0,.27.23,3.47,3.47,0,0,0,.37.23,1.92,1.92,0,0,0,.25.11l.25,0a1.75,1.75,0,0,0,.39,0,1.63,1.63,0,0,0,.37-.07,1.35,1.35,0,0,0,.32-.16,3.59,3.59,0,0,0,.44-.32,4.34,4.34,0,0,0,.43-.42,1.89,1.89,0,0,0,.28-.48,2.15,2.15,0,0,0,.15-.71,3.15,3.15,0,0,0-.22-.52,5.66,5.66,0,0,0-.34-.63,5.19,5.19,0,0,0-.36-.46q-.2-.21-.36-.36a3,3,0,0,0-.33-.28l-.38-.28-.53-.39-.56-.42a6.66,6.66,0,0,1-.56-.47,4.39,4.39,0,0,1-.43-.42,4.65,4.65,0,0,1-.29-.38,2.46,2.46,0,0,1-.26-.43,1.14,1.14,0,0,1-.15-.33,2.05,2.05,0,0,1-.08-.44,3,3,0,0,1,0-.4,1.5,1.5,0,0,1,.06-.22,2.6,2.6,0,0,1,.19-.32l.21-.28a1.65,1.65,0,0,1,.34-.22,2.5,2.5,0,0,1,.54-.23,5.41,5.41,0,0,1,.58-.12l.51-.06a3.09,3.09,0,0,1,.43,0l.28,0,.82.14"/></g></g></svg>