<?xml version="1.0" encoding="utf-8"?>
<!-- Generator: Adobe Illustrator 25.4.1, SVG Export Plug-In . SVG Version: 6.00 Build 0)  -->
<svg version="1.1" id="Layer_1" xmlns="http://www.w3.org/2000/svg" xmlns:xlink="http://www.w3.org/1999/xlink" x="0px" y="0px"
	 viewBox="0 0 135 40" style="enable-background:new 0 0 135 40;" xml:space="preserve">
<style type="text/css">
	.st0{display:none;fill:#A6A6A6;}
	.st1{fill:#FFFFFF;stroke:#FFFFFF;stroke-width:0.2;stroke-miterlimit:10;}
	.st2{fill:#FFFFFF;}
	.st3{fill:url(#SVGID_1_);}
	.st4{fill:url(#SVGID_00000152259662580022837150000014323180463404535185_);}
	.st5{fill:url(#SVGID_00000034798703584930024310000002301901298913691264_);}
	.st6{fill:url(#SVGID_00000056405624618141087390000006942689099080769442_);}
	.st7{opacity:0.2;enable-background:new    ;}
	.st8{opacity:0.12;enable-background:new    ;}
	.st9{opacity:0.25;fill:#FFFFFF;enable-background:new    ;}
</style>
<g id="Layer_2_00000131332685547695862600000018097553287913040257_">
	<g id="Layer_1-2">
		<path d="M5,0h125c2.8,0,5,2.2,5,5v30c0,2.8-2.2,5-5,5H5c-2.8,0-5-2.2-5-5V5C0,2.2,2.2,0,5,0z"/>
		<path class="st0" d="M130,0.8c2.3,0,4.2,1.9,4.2,4.2v30c0,2.3-1.9,4.2-4.2,4.2H5c-2.3,0-4.2-1.9-4.2-4.2c0,0,0,0,0,0l0,0V5
			c0-2.3,1.9-4.2,4.2-4.2c0,0,0,0,0,0H130 M130,0H5C2.2,0,0,2.2,0,5v30c0,2.8,2.2,5,5,5h125c2.8,0,5-2.2,5-5V5
			C135,2.2,132.8,0,130,0z"/>
		<path class="st1" d="M47.4,10.2c0,0.7-0.2,1.5-0.8,2c-0.6,0.6-1.4,0.9-2.2,0.9c-0.8,0-1.6-0.3-2.2-0.9C41,11,41,9,42.3,7.8
			c0.9-0.9,2.3-1.1,3.4-0.7c0.4,0.2,0.7,0.4,0.9,0.7l-0.5,0.5c-0.4-0.5-1-0.8-1.6-0.7c-1.3,0-2.4,1.1-2.4,2.4s1.1,2.4,2.4,2.4
			c0.6,0,1.2-0.2,1.7-0.7c0.3-0.3,0.5-0.8,0.5-1.2h-2.1V9.8h2.9C47.4,9.9,47.4,10.1,47.4,10.2z"/>
		<path class="st1" d="M52,7.7h-2.7v1.9h2.5v0.7h-2.5v1.9H52V13h-3.5V7H52V7.7z"/>
		<path class="st1" d="M55.3,13h-0.8V7.7h-1.7V7H57v0.7h-1.7V13z"/>
		<path class="st1" d="M59.9,13V7h0.8v6H59.9z"/>
		<path class="st1" d="M64.1,13h-0.8V7.7h-1.7V7h4.1v0.7h-1.7V13z"/>
		<path class="st1" d="M73.6,12.2c-1.2,1.2-3.2,1.2-4.4,0c0,0,0,0,0,0l0,0C68,11,68,9,69.2,7.8c0.6-0.6,1.4-0.9,2.2-0.9
			c0.8,0,1.6,0.3,2.2,0.9c0.6,0.6,0.9,1.4,0.9,2.2C74.5,10.8,74.2,11.6,73.6,12.2z M69.8,11.7c0.9,0.9,2.3,0.9,3.2,0c0,0,0,0,0,0
			l0,0c0.9-1,0.9-2.5,0-3.4c-0.9-0.9-2.3-0.9-3.2,0c0,0,0,0,0,0l0,0C68.9,9.3,68.9,10.7,69.8,11.7z"/>
		<path class="st1" d="M75.6,13V7h0.9l2.9,4.7l0,0V7h0.8v6h-0.8l-3-4.9l0,0V13H75.6z"/>
		<path class="st2" d="M68.1,21.8c-2.4,0-4.3,1.9-4.2,4.3s1.9,4.3,4.3,4.2c2.4,0,4.3-1.9,4.2-4.3c0-2.3-1.8-4.2-4.1-4.2c0,0,0,0,0,0
			H68.1z M68.1,28.6c-1.4,0.1-2.7-1-2.8-2.4s1-2.7,2.4-2.8c1.4-0.1,2.7,1,2.8,2.4c0,0,0,0,0,0c0,0.1,0,0.1,0,0.2
			C70.6,27.4,69.6,28.5,68.1,28.6C68.2,28.6,68.2,28.6,68.1,28.6L68.1,28.6z M58.8,21.8c-2.4,0-4.3,1.9-4.2,4.3
			c0,2.4,1.9,4.3,4.3,4.2c2.4,0,4.3-1.9,4.2-4.3c0-2.3-1.8-4.2-4.1-4.2H58.8z M58.8,28.6c-1.4,0.1-2.7-1-2.8-2.4s1-2.7,2.4-2.8
			s2.7,1,2.8,2.4c0,0,0,0,0,0c0,0.1,0,0.1,0,0.2C61.3,27.4,60.2,28.5,58.8,28.6C58.9,28.6,58.9,28.6,58.8,28.6L58.8,28.6z
			 M47.7,23.1v1.8h4.3c-0.1,0.8-0.4,1.6-1,2.3c-0.9,0.9-2.1,1.4-3.3,1.3c-2.7,0-4.8-2.1-4.8-4.8s2.1-4.8,4.8-4.8
			c1.2,0,2.4,0.4,3.3,1.3l1.3-1.3c-1.2-1.2-2.8-1.8-4.5-1.8c-3.6-0.1-6.7,2.7-6.8,6.4c-0.1,3.6,2.7,6.7,6.3,6.8h0.5
			c3.2,0.2,6-2.3,6.2-5.5c0-0.2,0-0.4,0-0.6c0-0.4,0-0.7-0.1-1.1L47.7,23.1z M93.1,24.5c-0.7-2.1-2.9-3.2-4.9-2.5
			c-1.6,0.5-2.7,2.1-2.7,3.8c0,0.1,0,0.2,0,0.3c0,2.3,1.9,4.2,4.2,4.3c1.4,0,2.8-0.7,3.6-1.9l-1.4-1c-0.4,0.7-1.2,1.2-2.1,1.2
			c-0.9,0-1.7-0.5-2.1-1.3l5.7-2.4L93.1,24.5z M87.2,25.9c-0.1-1.3,0.9-2.4,2.2-2.5l0,0c0.7,0,1.3,0.3,1.6,0.9L87.2,25.9z M82.6,30
			h1.9V17.5h-1.9V30z M79.6,22.7L79.6,22.7c-0.6-0.6-1.5-1-2.3-1c-2.3,0.1-4.2,2.1-4,4.5c0.1,2.2,1.9,3.9,4,4c0.9,0,1.7-0.3,2.2-1
			h0.1v0.6c0,1.6-0.9,2.5-2.3,2.5c-1,0-1.8-0.6-2.2-1.5l-1.6,0.7c0.6,1.5,2.1,2.5,3.8,2.5c2.2,0,4-1.3,4-4.4V22h-1.7V22.7z
			 M77.4,28.6c-1.4-0.1-2.5-1.3-2.4-2.7c0.1-1.3,1.1-2.3,2.4-2.4c1.3,0.1,2.3,1.2,2.3,2.5c0,0,0,0,0,0V26c0.1,1.3-0.9,2.5-2.2,2.6
			L77.4,28.6z M101.8,17.5h-4.5V30h1.9v-4.7h2.6c2.1,0.2,4-1.5,4.2-3.6c0.2-2.1-1.5-4-3.6-4.2C102.2,17.5,102,17.5,101.8,17.5z
			 M101.8,23.5h-2.6v-4.3h2.7c1.2,0,2.1,1,2.1,2.1C104,22.6,103,23.5,101.8,23.5L101.8,23.5L101.8,23.5L101.8,23.5z M113.3,21.7
			c-1.4-0.1-2.7,0.7-3.3,1.9l1.7,0.7c0.6-0.9,1.9-1.2,2.9-0.6c0.4,0.3,0.7,0.7,0.9,1.2v0.1c-0.6-0.3-1.3-0.5-1.9-0.5
			c-1.8,0-3.6,1-3.6,2.8c0.1,1.6,1.4,2.8,3,2.8h0.1c1,0.1,1.9-0.4,2.4-1.2h0.1v1h1.8v-4.8C117.2,23,115.5,21.7,113.3,21.7
			L113.3,21.7z M113.1,28.6c-0.6,0-1.5-0.3-1.5-1.1c0-1,1.1-1.3,2-1.3c0.6,0,1.2,0.1,1.7,0.4C115.2,27.7,114.3,28.6,113.1,28.6
			L113.1,28.6z M123.7,22l-2.1,5.4h-0.1l-2.2-5.4h-2l3.3,7.6l-1.9,4.2h2l5.1-11.8H123.7z M106.9,30h1.9V17.5h-1.9V30z"/>
		
			<linearGradient id="SVGID_1_" gradientUnits="userSpaceOnUse" x1="21.81" y1="-324.72" x2="5.03" y2="-341.5" gradientTransform="matrix(1 0 0 -1 0 -316)">
			<stop  offset="0" style="stop-color:#00A0FF"/>
			<stop  offset="1.000000e-02" style="stop-color:#00A1FF"/>
			<stop  offset="0.26" style="stop-color:#00BEFF"/>
			<stop  offset="0.51" style="stop-color:#00D2FF"/>
			<stop  offset="0.76" style="stop-color:#00DFFF"/>
			<stop  offset="1" style="stop-color:#00E3FF"/>
		</linearGradient>
		<path class="st3" d="M10.4,7.5C10.1,7.9,10,8.4,10,8.9v22.1c0,0.5,0.1,1,0.5,1.4l0.1,0.1l12.4-12.4v-0.3L10.4,7.5L10.4,7.5z"/>
		
			<linearGradient id="SVGID_00000003827750430752890300000013258309902055325367_" gradientUnits="userSpaceOnUse" x1="33.83" y1="-336" x2="9.64" y2="-336" gradientTransform="matrix(1 0 0 -1 0 -316)">
			<stop  offset="0" style="stop-color:#FFE000"/>
			<stop  offset="0.41" style="stop-color:#FFBD00"/>
			<stop  offset="0.78" style="stop-color:#FFA500"/>
			<stop  offset="1" style="stop-color:#FF9C00"/>
		</linearGradient>
		<path style="fill:url(#SVGID_00000003827750430752890300000013258309902055325367_);" d="M27,24.3l-4.1-4.1v-0.3l4.1-4.1l0.1,0.1
			l4.9,2.8c1.4,0.8,1.4,2.1,0,2.9l-4.9,2.8L27,24.3z"/>
		
			<linearGradient id="SVGID_00000119833045539183720460000001515967811049513867_" gradientUnits="userSpaceOnUse" x1="24.825" y1="-338.295" x2="2.065" y2="-361.045" gradientTransform="matrix(1 0 0 -1 0 -316)">
			<stop  offset="0" style="stop-color:#FF3A44"/>
			<stop  offset="1" style="stop-color:#C31162"/>
		</linearGradient>
		<path style="fill:url(#SVGID_00000119833045539183720460000001515967811049513867_);" d="M27.1,24.2L22.9,20L10.4,32.5
			c0.6,0.5,1.5,0.5,2.1,0.1L27.1,24.2"/>
		
			<linearGradient id="SVGID_00000095316160638989157800000012294918541205962669_" gradientUnits="userSpaceOnUse" x1="7.3" y1="-316.18" x2="17.46" y2="-326.34" gradientTransform="matrix(1 0 0 -1 0 -316)">
			<stop  offset="0" style="stop-color:#32A071"/>
			<stop  offset="7.000000e-02" style="stop-color:#2DA771"/>
			<stop  offset="0.48" style="stop-color:#15CF74"/>
			<stop  offset="0.8" style="stop-color:#06E775"/>
			<stop  offset="1" style="stop-color:#00F076"/>
		</linearGradient>
		<path style="fill:url(#SVGID_00000095316160638989157800000012294918541205962669_);" d="M27.1,15.8L12.5,7.5
			C11.9,7,11,7,10.4,7.5L22.9,20L27.1,15.8z"/>
		<path class="st7" d="M27,24.1l-14.5,8.3c-0.6,0.5-1.4,0.5-2,0l0,0l-0.1,0.1l0,0l0.1,0.1l0,0c0.6,0.5,1.4,0.5,2,0l14.6-8.3L27,24.1
			z"/>
		<path class="st8" d="M10.4,32.3c-0.3-0.4-0.5-0.9-0.4-1.4v0.1c0,0.5,0.1,1,0.5,1.4l0.1-0.1L10.4,32.3z"/>
		<path class="st8" d="M32,21.3l-5,2.8l0.1,0.1l4.9-2.8c0.6-0.2,1-0.8,1.1-1.4l0,0C32.9,20.6,32.5,21.1,32,21.3z"/>
		<path class="st9" d="M12.5,7.6L32,18.7c0.5,0.2,0.9,0.7,1.1,1.3l0,0c-0.1-0.6-0.5-1.2-1.1-1.4L12.5,7.5C11.1,6.7,10,7.3,10,8.9
			v0.1C10,7.5,11.1,6.8,12.5,7.6z"/>
	</g>
</g>
</svg>
