<svg xmlns="http://www.w3.org/2000/svg" viewBox="0 0 101.53 101.53"><defs><style>.cls-1,.cls-5{fill:none;}.cls-1{opacity:0.3;}.cls-2,.cls-3{fill:#fff;}.cls-3,.cls-4,.cls-5,.cls-6{stroke:#003f84;stroke-linecap:round;stroke-linejoin:round;stroke-width:2px;}.cls-4{fill:#e59203;}.cls-6{fill:#003f84;}</style></defs><g id="Layer_2" data-name="Layer 2"><g id="Layer_2-2" data-name="Layer 2"><rect class="cls-1" width="101.53" height="101.53"/><path class="cls-2" d="M74.6,88.89c0,3.85-48.55,1.35-51.66,0s-.76-61.17,0-66.27,49.65-1.77,51.66,0S74.6,85,74.6,88.89Z"/><path class="cls-3" d="M75.26,60.12c-.26,14-.66,27.05-.66,28.77,0,3.85-48.55,1.35-51.66,0s-.76-61.17,0-66.27,49.65-1.77,51.66,0c1,.86,1,15.49.78,30.81"/><path class="cls-4" d="M59.55,16.93c-.23-.06-2-.13-4.4-.19a6.75,6.75,0,0,0-13.43-.1,16.38,16.38,0,0,0-4.12.29c-.32.59-1.32,5.68,0,5.84s21.95.45,21.95,0S60.41,17.13,59.55,16.93Z"/><path class="cls-4" d="M41.54,36.81c3.92-.75,23.54,0,27.12,0"/><path class="cls-4" d="M41.54,49.91c3.92-.75,23.54,0,27.12,0"/><path class="cls-4" d="M41.54,63.09c3.92-.76,23.54,0,27.12,0"/><path class="cls-4" d="M41.54,75.17c3.92-.76,23.54,0,27.12,0"/><circle class="cls-4" cx="68.66" cy="71.61" r="13.5"/><path class="cls-5" d="M63.9,74.82l1.07.8a7.46,7.46,0,0,0,1,.66,3.06,3.06,0,0,0,.59.23,4.49,4.49,0,0,0,.83.08,7,7,0,0,0,2-1.76,17.47,17.47,0,0,0,1.8-2.62c.5-.9.82-1.47.93-1.71l1.32-2.59"/><path class="cls-6" d="M34.23,38.38c-.46.47-3.82,0-3.82,0s-1.44-3.82,0-3.82h3.82S34.69,37.91,34.23,38.38Z"/><path class="cls-6" d="M34.23,51.55c-.46.47-3.82,0-3.82,0s-1.44-3.82,0-3.82h3.82S34.69,51.08,34.23,51.55Z"/><path class="cls-6" d="M34.23,64.72c-.46.47-3.82,0-3.82,0s-1.44-3.82,0-3.82h3.82S34.69,64.25,34.23,64.72Z"/><path class="cls-6" d="M34.23,77.89c-.46.47-3.82,0-3.82,0s-1.44-3.82,0-3.82h3.82S34.69,77.42,34.23,77.89Z"/></g></g></svg>