<svg xmlns="http://www.w3.org/2000/svg" viewBox="0 0 101.53 101.53"><defs><style>.cls-1,.cls-3{fill:none;}.cls-1{opacity:0.3;}.cls-2,.cls-4{fill:#fff;}.cls-3,.cls-4,.cls-5,.cls-6{stroke:#003f84;stroke-linecap:round;stroke-linejoin:round;stroke-width:2px;}.cls-5{fill:#003f84;}.cls-6{fill:#e59203;}</style></defs><g id="Layer_2" data-name="Layer 2"><g id="Layer_2-2" data-name="Layer 2"><rect class="cls-1" width="101.53" height="101.53"/><path class="cls-2" d="M65.81,29.28c-2-3.66-42,0-42,0s-1.16,35.41,0,55v.14c3.48,1.43,11.57,2.43,21,2.43s17.52-1,21-2.43C65.81,84.44,67.85,33,65.81,29.28Z"/><line class="cls-3" x1="42.91" y1="80.11" x2="79.55" y2="80.11"/><line class="cls-3" x1="35.61" y1="76.23" x2="72.24" y2="76.23"/><path class="cls-4" d="M23.38,71.72c.07,4.53.21,8.84.43,12.58v.14c3.48,1.43,11.57,2.43,21,2.43s17.52-1,21-2.43c0,0,2-51.49,0-55.16s-42,0-42,0-.61,18.81-.5,36.6"/><path class="cls-5" d="M67.63,18.66v9.66c0,2.2-10.21,4-22.82,4S22,30.52,22,28.32V18.66"/><ellipse class="cls-4" cx="44.81" cy="18.66" rx="22.82" ry="3.99"/><path class="cls-6" d="M23.39,66l.5.25c3.53,1.41,11.57,2.4,20.92,2.4a110.32,110.32,0,0,0,13.36-.76V40.79a108.32,108.32,0,0,1-13.36.76c-9.43,0-17.52-1-21-2.43"/><path class="cls-3" d="M35.45,48.44l.29,0,.66-.12.66-.11.34,0h.78a10.06,10.06,0,0,1,1.18.06,5.81,5.81,0,0,1,1,.25,4.07,4.07,0,0,1,.79.32,2.81,2.81,0,0,1,.46.29l.3.27a2.27,2.27,0,0,1,.21.28,1.68,1.68,0,0,1,.2.49c.06.22.09.34.1.35s0,.13-.05.37a2.2,2.2,0,0,1-.12.54,1.41,1.41,0,0,1-.18.37,3.55,3.55,0,0,1-.34.44,3.08,3.08,0,0,1-.59.52,7.55,7.55,0,0,1-1,.55c-.4.2-.68.33-.83.39l-.55.19-.63.18c-.21.05-.43.1-.65.17l-.42.12-.2.06a2.54,2.54,0,0,0-.42.21.81.81,0,0,0,0,.14,1.41,1.41,0,0,0,.29.32,3.82,3.82,0,0,0,.39.33l.29.18.19.13.26.17a2.92,2.92,0,0,0,.31.18l.34.21.5.33.82.54c.36.24.78.55,1.25.92s.81.64,1,.81l.43.37c.1.08.3.28.61.58l2.46,2.51"/><path class="cls-3" d="M45.51,56.55l-.11.14c-.26.31-.44.53-.56.66l-.38.44-.65.73-.58.65-.45.49-.48.53-.65.69-.57.6-.21.23c-.09.1-.32.35-.71.75"/><path class="cls-4" d="M23.37,71.21c.07,4.72.21,9.21.44,13.09"/><path class="cls-4" d="M23.81,29.28s-.61,18.81-.5,36.6"/></g></g></svg>