<svg xmlns="http://www.w3.org/2000/svg" viewBox="0 0 101.53 101.53"><defs><style>.cls-1{fill:none;opacity:0.3;}.cls-2{fill:#fff;}.cls-2,.cls-3,.cls-4{stroke:#003f84;stroke-linecap:round;stroke-linejoin:round;stroke-width:2px;}.cls-3{fill:#e59203;}.cls-4,.cls-5{fill:#003f84;}</style></defs><g id="Layer_2" data-name="Layer 2"><g id="Layer_2-2" data-name="Layer 2"><rect class="cls-1" width="101.53" height="101.53"/><path class="cls-2" d="M58.36,32.1l23.74,9a11.72,11.72,0,0,1,6.82,15.07h0A11.71,11.71,0,0,1,73.85,63L31.49,47a11.73,11.73,0,0,1-6.82-15.07h0a11.73,11.73,0,0,1,15.08-6.83L52.9,30"/><path class="cls-3" d="M82.1,41.06l-21.18-8c.32,3.23-8.23,16.58-8.25,21.9l21.18,8A11.7,11.7,0,1,0,82.1,41.06Z"/><path class="cls-4" d="M60.47,38.61s11.45,3.69,14,5.27c0,0,.6,2.06-1.09,2.89s-10.81-4.08-14-5.27C58,41,60.47,38.61,60.47,38.61Z"/><circle class="cls-2" cx="38.04" cy="57.83" r="19.79"/><path class="cls-3" d="M50.82,52.44a33.15,33.15,0,0,1,5.45-2.3A19.79,19.79,0,1,0,19.81,65.53"/><path class="cls-3" d="M19.81,65.53c4.11-3.2,20.45-7.54,26.47-11.18"/><circle class="cls-5" cx="64.07" cy="68.4" r="3.27"/><circle class="cls-5" cx="16.54" cy="41.62" r="2.52"/><circle class="cls-5" cx="16.09" cy="28.14" r="4.23"/></g></g></svg>