<svg width="245" height="64" viewBox="0 0 245 64" fill="none" xmlns="http://www.w3.org/2000/svg">
<path fill-rule="evenodd" clip-rule="evenodd" d="M15.1211 0.601725C12.2806 2.0989 10.7188 4.58872 10.7188 7.61868C10.7188 9.91555 11.3787 11.6677 12.735 12.9712C13.9187 14.1096 13.7629 14.5101 12.1317 14.5189C10.4347 14.5281 5.7418 15.7902 3.66352 16.7962C1.38616 17.8987 0 19.5697 0 21.2127C0 21.9179 0.947461 24.9015 2.10547 27.843C4.33803 33.514 4.42416 33.8827 3.83616 35.262C1.89913 39.8063 0 45.3835 0 46.5281C0 49.2606 3.64438 51.6375 9.62429 52.8043L12.1662 53.3001L11.9694 55.4683C11.7872 57.4819 11.858 57.733 12.9659 58.9948C14.4646 60.7018 16.9827 61.7935 21.7342 62.7961C27.0423 63.9162 36.1739 63.6617 41.0421 62.2579C42.8765 61.7288 45.0046 60.9081 45.771 60.4345C47.3669 59.448 48.6137 57.6224 48.6157 56.2684C48.6164 55.7585 47.6697 52.8801 46.5117 49.872C45.3537 46.8642 44.4062 44.0732 44.4062 43.67C44.4062 43.2666 45.3537 40.5754 46.5117 37.6897C49.0027 31.4824 49.1068 30.3784 47.37 28.6079C46.684 27.9089 45.8326 27.1643 45.4785 26.9538C44.8978 26.6089 44.9533 26.3926 46.0439 24.7645C46.818 23.6088 47.6196 22.878 48.27 22.7352C50.9497 22.1464 51.9373 18.8071 50.0041 16.8736C47.8906 14.76 44.3423 16.2526 44.2363 19.2991C44.1746 21.0738 40.884 25.4302 39.8921 25.0497C39.5518 24.9191 38.524 24.7093 37.6086 24.5842C36.2634 24.3996 35.997 24.2381 36.2179 23.7408C37.3935 21.0941 36.451 18.7076 33.5669 17.0278C31.7754 15.9847 26.5519 14.5124 24.642 14.5124C23.311 14.5124 22.6185 13.963 23.5154 13.6189C23.8136 13.5044 24.5302 12.604 25.1083 11.6179C27.4695 7.58882 25.7675 2.2704 21.5455 0.486115C19.9013 -0.20869 16.544 -0.148587 15.1211 0.601725ZM19.7857 3.43645C22.321 4.39693 23.5284 6.87755 22.5779 9.17251C21.8509 10.9277 20.4556 11.8327 18.4764 11.8327C14.9599 11.8327 12.8767 7.83037 14.9929 5.13997C15.703 4.23729 17.5891 3.09192 18.4458 3.04292C18.5901 3.03488 19.1931 3.21174 19.7857 3.43645ZM101.53 15.6003C101.161 15.8342 101.067 17.2717 101.147 21.4325C101.248 26.6628 101.294 26.9538 102.02 26.9538C102.714 26.9538 102.795 26.6617 102.896 23.7956L103.008 20.6374H104.127C105.613 20.6374 106.039 21.527 106.039 24.6316C106.039 26.8898 106.117 27.1452 106.805 27.1452C107.51 27.1452 107.57 26.8898 107.57 23.9062C107.57 21.0673 107.467 20.5708 106.732 19.8867C106.193 19.384 105.375 19.1061 104.435 19.1061H102.977V17.1921C102.977 15.2738 102.635 14.8986 101.53 15.6003ZM130.252 15.5314C129.904 15.6719 129.773 17.0546 129.773 20.5842C129.773 25.7452 130.178 27.1452 131.668 27.1452C132.558 27.1452 133.021 26.0438 132.255 25.7498C131.792 25.5722 131.688 24.5834 131.688 20.405C131.688 15.1972 131.623 14.9782 130.252 15.5314ZM154.824 15.7749C154.719 16.0482 154.682 18.6755 154.74 21.6128L154.848 26.9538L157.192 27.0663C159.408 27.1731 159.591 27.1138 160.542 25.9845C161.332 25.0455 161.547 24.3824 161.547 22.8875C161.547 20.3005 160.404 19.1061 157.927 19.1061H156.188V17.1921C156.188 15.7286 156.05 15.278 155.601 15.278C155.279 15.278 154.929 15.5016 154.824 15.7749ZM81.8277 16.5221C81.5429 17.2973 81.9341 17.9577 82.6783 17.9577C83.4057 17.9577 83.991 16.9872 83.6231 16.392C83.305 15.8767 82.031 15.9693 81.8277 16.5221ZM91.2487 16.6152C91.1163 16.9608 91.1913 17.4271 91.4156 17.6514C91.999 18.2348 93.1038 17.7016 92.9515 16.9107C92.7819 16.0295 91.5554 15.8166 91.2487 16.6152ZM163.143 16.8743C163.227 17.4688 163.525 17.7663 164.035 17.7663C165.175 17.7663 165.061 16.2718 163.909 16.1087C163.167 16.0034 163.038 16.132 163.143 16.8743ZM66.7763 16.926C66.671 17.2009 66.6331 19.5697 66.6928 22.1897L66.8008 26.9538H69.9196C72.4499 26.9538 73.1907 26.816 73.8434 26.2245C74.8751 25.2897 74.9241 23.1628 73.933 22.3141C73.2849 21.7594 73.2692 21.5986 73.7661 20.6025C74.5267 19.0782 73.776 17.5465 71.9642 16.9264C70.1198 16.2955 67.0186 16.2951 66.7763 16.926ZM113.785 17.7368C112.402 19.0051 112.355 19.1318 112.355 21.6606C112.355 25.7732 113.932 27.2998 117.943 27.0717C119.727 26.9698 120.028 26.8401 120.13 26.1269C120.241 25.3417 120.134 25.31 118.024 25.4998C115.494 25.728 114.895 25.3264 114.108 22.8715C113.744 21.736 113.765 21.2127 114.218 20.1267C114.943 18.3933 116.06 17.8103 118.119 18.0928C119.294 18.2536 119.803 18.1724 119.945 17.8007C120.289 16.9049 119.351 16.4264 117.25 16.4264C115.467 16.4264 115.038 16.5887 113.785 17.7368ZM85.3672 21.1262C85.3672 26.3964 85.719 27.1452 88.1962 27.1452C90.0118 27.1452 90.3901 26.9457 90.085 26.1506C89.9663 25.8413 89.3477 25.6139 88.6249 25.6139C87.2077 25.6139 86.9126 25.0397 86.9038 22.2643L86.8984 20.6374H88.4297C89.7056 20.6374 89.9609 20.5099 89.9609 19.8717C89.9609 19.2336 89.7056 19.1061 88.4297 19.1061C86.9834 19.1061 86.8984 19.0422 86.8984 17.9577C86.8984 17.0646 86.7285 16.8092 86.1328 16.8092C85.4124 16.8092 85.3672 17.0646 85.3672 21.1262ZM27.1445 18.3527C30.5699 19.157 32.7818 20.2098 33.1696 21.2208C33.2921 21.5389 33.1791 22.3133 32.9192 22.9411C32.4468 24.0815 32.443 24.0827 29.1431 24.0961C22.5833 24.1225 15.866 25.9022 13.3728 28.2741C11.2229 30.3191 11.3041 31.6455 13.9941 38.4424L16.1206 43.8163L14.9917 46.8692C13.8674 49.9107 13.8582 49.9221 12.5781 49.8088C8.66917 49.4628 4.08384 47.7803 3.59767 46.514C3.48512 46.2203 4.3522 43.4404 5.52475 40.3361C6.69692 37.2319 7.65625 34.3103 7.65625 33.8436C7.65625 33.3774 6.69118 30.4714 5.51173 27.386C4.33191 24.3009 3.46484 21.5213 3.58466 21.2089C4.10681 19.8488 9.32493 18.0461 14.5469 17.4225C17.2411 17.1006 23.9086 17.5932 27.1445 18.3527ZM71.7662 18.4764C73.067 19.4277 71.5006 21.0202 69.2642 21.0202C68.6551 21.0202 68.5234 20.7476 68.5234 19.4889C68.5234 18.0109 68.5675 17.9577 69.7902 17.9577C70.4869 17.9577 71.3762 18.1912 71.7662 18.4764ZM76.3431 19.6149C76.236 19.8947 76.1981 21.6606 76.2597 23.5387C76.3615 26.6613 76.4366 26.9538 77.1367 26.9538C77.8311 26.9538 77.9127 26.6617 78.013 23.8185L78.124 20.6837L79.3498 20.5646C80.1533 20.4869 80.6195 20.2151 80.7026 19.776C80.8113 19.2026 80.5204 19.1061 78.6841 19.1061C77.2527 19.1061 76.4733 19.2753 76.3431 19.6149ZM81.9219 23.1256C81.9219 26.8898 81.9705 27.1452 82.6875 27.1452C83.4045 27.1452 83.4531 26.8898 83.4531 23.1256C83.4531 19.3615 83.4045 19.1061 82.6875 19.1061C81.9705 19.1061 81.9219 19.3615 81.9219 23.1256ZM91.1094 23.1524C91.1094 27.1295 91.1239 27.1965 91.9707 27.0763C92.7915 26.9595 92.837 26.7693 92.9411 23.0299L93.0502 19.1061H92.0798H91.1094V23.1524ZM95.2556 19.5846C93.7443 20.8024 94.2595 22.5729 96.45 23.6903C98.6244 24.7993 98.5401 25.7341 96.2823 25.5546C95.0948 25.46 94.5038 25.5768 94.3671 25.9332C94.0222 26.832 94.549 27.1452 96.4064 27.1452C98.8208 27.1452 99.9952 26.3145 99.8398 24.7159C99.7426 23.7125 99.4153 23.3465 97.9054 22.5514C96.9059 22.0251 96.0875 21.3793 96.0871 21.1159C96.0859 20.6098 96.3539 20.5283 98.183 20.4774C98.9471 20.4563 99.3666 20.2251 99.4551 19.776C99.5665 19.2114 99.2935 19.1061 97.7183 19.1061C96.6904 19.1061 95.5822 19.3216 95.2556 19.5846ZM121.96 20.284C121.226 21.1557 120.969 21.8941 120.969 23.1256C120.969 25.5577 122.385 27.1452 124.554 27.1452C126.564 27.1452 127.671 26.3861 128.259 24.6067C128.608 23.5498 128.612 22.8688 128.277 21.7506C127.723 19.9028 126.602 19.1061 124.554 19.1061C123.234 19.1061 122.776 19.314 121.96 20.284ZM133.658 22.3202C133.838 26.6043 134.351 27.2229 137.6 27.0659L139.918 26.9538L140.027 23.0299C140.131 19.3033 140.097 19.1061 139.357 19.1061C138.635 19.1061 138.578 19.3427 138.578 22.36V25.6139H137.256C136.055 25.6139 135.898 25.483 135.536 24.1784C135.317 23.389 135.136 21.9248 135.135 20.9245C135.133 19.3324 135.033 19.1061 134.328 19.1061C133.563 19.1061 133.53 19.2661 133.658 22.3202ZM142.178 19.6382C142.076 19.9054 142.042 21.6606 142.103 23.5387C142.205 26.6613 142.28 26.9538 142.98 26.9538C143.675 26.9538 143.756 26.6617 143.857 23.7956C143.965 20.7388 143.998 20.6374 144.896 20.6374C146.173 20.6374 146.617 21.6683 146.617 24.6316C146.617 26.8726 146.698 27.1452 147.367 27.1452C148.043 27.1452 148.129 26.8305 148.229 23.987L148.34 20.8288L149.447 20.7024C150.932 20.5329 151.198 21.0876 151.205 24.3698C151.211 26.8879 151.282 27.1452 151.977 27.1452C152.682 27.1452 152.742 26.8898 152.742 23.8913C152.742 19.3239 152.604 19.2141 146.838 19.1796C143.558 19.1601 142.314 19.2826 142.178 19.6382ZM163.078 23.1256C163.078 27.1302 163.093 27.1965 163.939 27.0763C164.767 26.9584 164.801 26.8041 164.801 23.1256C164.801 19.4472 164.767 19.2929 163.939 19.175C163.093 19.0548 163.078 19.121 163.078 23.1256ZM167.289 19.8499C167.289 20.4483 167.6 20.6163 168.886 20.7112C171.024 20.8686 171.204 21.6392 169.182 21.9807C166.347 22.4599 165.212 24.7185 166.979 26.3646C167.622 26.9645 168.331 27.1452 170.041 27.1452H172.266L172.304 25.1354C172.407 19.8361 172.024 19.1061 169.144 19.1061C167.562 19.1061 167.289 19.2156 167.289 19.8499ZM159.79 22.2785C160.287 24.232 159.346 25.6139 157.519 25.6139H156.188V23.3048C156.188 21.2602 156.286 20.9589 157.049 20.6749C158.4 20.1719 159.403 20.7591 159.79 22.2785ZM126.11 21.2388C127.47 22.6 126.426 25.6139 124.593 25.6139C123.444 25.6139 122.73 24.6596 122.73 23.1256C122.73 22.4282 122.957 21.5829 123.236 21.2472C123.883 20.4678 125.334 20.4636 126.11 21.2388ZM72.4109 22.7796C73.0226 23.1578 72.7386 24.8192 71.994 25.2177C71.5867 25.4355 70.6392 25.6139 69.8885 25.6139C68.561 25.6139 68.5234 25.5734 68.5234 24.1466C68.5234 23.3393 68.6528 22.5491 68.8105 22.3906C69.0954 22.1047 71.79 22.3956 72.4109 22.7796ZM170.734 24.6569C170.734 25.4922 170.567 25.6139 169.417 25.6139C168.692 25.6139 167.989 25.434 167.853 25.2143C167.447 24.557 168.454 23.6999 169.633 23.6999C170.553 23.6999 170.734 23.858 170.734 24.6569ZM36.1222 27.7715C37.0991 27.9054 37.8984 28.1424 37.8984 28.2978C37.8984 28.4536 33.673 33.8896 28.5084 40.3779C23.3439 46.8661 19.0204 52.5651 18.9006 53.0421C18.331 55.3118 20.8388 57.7445 23.1498 57.1642C24.3897 56.8533 24.9349 56.1164 34.8149 41.4049C39.092 35.0361 42.7892 29.8249 43.0308 29.8249C43.6984 29.8249 45.1711 30.9565 45.1765 31.4736C45.1791 31.7248 44.1211 34.5779 42.8252 37.8134L40.4694 43.6968L42.8528 49.9853C44.8901 55.3604 45.1619 56.3637 44.7255 56.8901C43.6502 58.1867 39.44 59.4423 33.8724 60.1264C26.473 61.0359 15.3098 58.6349 15.314 56.1356C15.3148 55.6659 16.2623 52.8744 17.4195 49.9321C18.5767 46.9894 19.5234 44.2205 19.5234 43.7788C19.5234 43.3374 18.576 40.5815 17.418 37.6553C16.26 34.7287 15.3125 31.974 15.3125 31.533C15.3125 30.2395 18.3872 28.8969 23.9258 27.7722C25.2055 27.5123 34.228 27.5119 36.1222 27.7715ZM77.9663 31.2286C77.8258 31.3687 77.7109 34.4695 77.7109 38.1193V44.7546H79.2422H80.7734V41.1178C80.7734 37.3215 80.9951 36.8943 82.4123 37.9596C82.9011 38.3271 83.0734 39.1931 83.1553 41.6921L83.2617 44.946L84.6973 45.0646L86.1328 45.1837V41.3027C86.1328 37.524 86.1033 37.3927 85.0138 36.3032C84.143 35.4323 83.5488 35.1842 82.3342 35.1842H80.7734V33.0788V30.9733H79.4975C78.7954 30.9733 78.1064 31.0881 77.9663 31.2286ZM199.832 31.5425C199.196 32.3093 199.647 33.9267 200.58 34.223C202.28 34.7624 203.669 32.6699 202.431 31.4327C201.797 30.798 200.401 30.8569 199.832 31.5425ZM221.653 31.5425C220.453 32.9884 222.696 35.2317 224.142 34.0316C224.827 33.4627 224.886 32.0674 224.252 31.4327C223.617 30.798 222.221 30.8569 221.653 31.5425ZM67.6621 32.3855C67.0596 32.5432 66.9922 33.1729 66.9922 38.6575V44.7546H68.5234H70.0547V42.8405C70.0547 41.1113 70.1378 40.926 70.916 40.9241C72.5108 40.9203 74.7395 40.1045 75.6545 39.1896C76.3615 38.4826 76.5625 37.8685 76.5625 36.4169C76.5625 34.2716 75.656 33.1228 73.4682 32.4954C72.1598 32.1202 68.9128 32.059 67.6621 32.3855ZM154.846 33.2729C154.114 34.6885 150.445 43.9943 150.445 44.4353C150.445 44.611 151.132 44.7546 151.972 44.7546C153.358 44.7546 153.55 44.6301 154.066 43.3952C154.633 42.0385 154.637 42.0362 156.833 42.151C158.951 42.2621 159.046 42.3126 159.388 43.5104C159.72 44.673 159.854 44.7546 161.437 44.7546C163.413 44.7546 163.431 45.1186 161.159 39.3952C158.231 32.0218 158.291 32.1217 156.785 32.1217C155.679 32.1217 155.337 32.325 154.846 33.2729ZM214.662 32.7683C214.066 32.9241 213.992 33.511 213.992 38.1009C213.992 43.066 214.027 43.293 214.932 44.1976C215.671 44.9364 216.264 45.1362 217.707 45.1316C220.057 45.124 220.615 44.7714 220.294 43.4951C220.09 42.682 219.788 42.4783 218.645 42.383L217.246 42.2663L217.131 40.0651L217.016 37.8639H218.567C220.084 37.8639 220.117 37.8348 220.117 36.5241C220.117 35.216 220.081 35.1842 218.586 35.1842C217.091 35.1842 217.055 35.1525 217.055 33.8444C217.055 32.4556 216.615 32.258 214.662 32.7683ZM73.268 35.6628C73.9142 36.6948 73.098 37.6515 71.4516 37.7912L70.0547 37.9102V36.3327V34.7551L71.4516 34.8742C72.2654 34.9435 73.0234 35.2723 73.268 35.6628ZM205.644 35.0705C204.91 35.2141 204.781 35.4488 204.878 36.4579C204.994 37.6488 205.03 37.6702 206.744 37.5485C207.925 37.4643 208.64 37.6032 208.951 37.9769C209.337 38.442 209.103 38.5702 207.474 38.7861C205.095 39.1019 204.039 40.0536 204.039 41.8835C204.039 43.4017 205.008 44.5991 206.551 44.9862C207.626 45.256 211.421 44.9693 212.068 44.5693C212.498 44.3032 212.542 39.002 212.127 37.5156C211.985 37.0083 211.442 36.2913 210.921 35.9223C209.93 35.2214 207.159 34.7743 205.644 35.0705ZM88.249 35.5494C88.125 35.7504 88.1345 36.3572 88.2704 36.8985C88.4902 37.7747 88.6555 37.8563 89.7799 37.6453C91.2525 37.3689 92.6418 37.7204 92.6379 38.3681C92.6364 38.6395 91.9229 38.8539 90.859 38.9025C88.0492 39.0319 86.5949 40.9892 87.519 43.3975C88.076 44.8487 91.3119 45.537 94.5409 44.8912L95.7713 44.6451L95.6415 40.9015C95.5259 37.563 95.4114 37.0516 94.5838 36.1711C93.7638 35.2991 93.3542 35.1842 91.0653 35.1842C89.6405 35.1842 88.3734 35.3485 88.249 35.5494ZM98.3101 35.4438C97.5203 35.652 97.3902 36.637 97.5479 41.2135L97.6696 44.7546H98.9689H100.268L100.378 41.2135L100.488 37.6725L101.799 37.7786C103.212 37.893 103.727 37.4325 103.736 36.0456C103.742 35.239 103.59 35.1869 101.35 35.2286C100.034 35.2531 98.6661 35.35 98.3101 35.4438ZM104.965 35.5211C104.61 35.7401 104.51 36.9842 104.59 40.1914L104.699 44.5631L106.135 44.6818L107.57 44.8009V41.3203C107.57 38.4439 107.679 37.7981 108.2 37.5983C109.316 37.1699 109.867 38.5472 109.867 41.7652V44.7546H111.436H113.006L112.872 41.3131C112.769 38.6506 112.858 37.826 113.265 37.6698C114.42 37.2273 114.844 38.2686 114.844 41.5473V44.7546H116.375H117.906V40.9092C117.906 37.3869 117.831 36.988 117.01 36.1673C116.159 35.3159 115.846 35.2696 110.781 35.2463C107.849 35.2329 105.231 35.3565 104.965 35.5211ZM120.022 35.5494C119.898 35.7504 119.902 36.3327 120.03 36.8441C120.241 37.6844 120.449 37.7686 122.203 37.7231C124.735 37.6572 125.067 38.4447 122.66 38.8056C119.718 39.2466 118.441 41.0742 119.48 43.3546C120.046 44.5972 121.35 45.1385 123.762 45.132C127.647 45.1221 127.562 45.2258 127.414 40.6474C127.252 35.6283 126.882 35.1842 122.863 35.1842C121.425 35.1842 120.147 35.3485 120.022 35.5494ZM130.576 36.1692C127.029 39.1536 129.102 45.1374 133.683 45.1374C135.794 45.1374 136.606 44.6221 136.378 43.4281C136.212 42.5599 136.01 42.4577 134.461 42.4577C132.506 42.4577 131.719 41.7759 131.7 40.0651C131.681 38.4538 132.956 37.3969 134.556 37.6974C135.73 37.9175 135.889 37.8425 136.109 36.9681C136.475 35.5073 136.057 35.1842 133.8 35.1842C132.152 35.1842 131.515 35.3791 130.576 36.1692ZM137.047 35.4495C137.047 35.884 138.451 39.5563 139.614 42.1664C140.731 44.6719 140.458 45.5202 138.539 45.5202C137.697 45.5202 137.39 45.7365 137.21 46.4554C136.872 47.8014 137.276 48.1999 138.977 48.1999C141.332 48.1999 142.511 46.8382 144.532 41.7862C145.479 39.4166 146.357 36.9616 146.484 36.3311C146.705 35.2248 146.664 35.1842 145.317 35.1842C143.782 35.1842 143.618 35.4128 142.771 38.7253C142.516 39.7255 142.183 40.5436 142.031 40.5436C141.879 40.5436 141.409 39.381 140.987 37.9596L140.218 35.3756L138.633 35.2581C137.76 35.193 137.047 35.2792 137.047 35.4495ZM165.121 35.7497C164.677 36.0605 164.208 36.7377 164.078 37.2541C163.671 38.8757 164.437 40.0609 166.604 41.1599C168.277 42.0086 168.5 42.2326 167.885 42.4489C167.476 42.5928 166.491 42.5917 165.695 42.4462C164.003 42.1369 163.844 42.2383 163.844 43.6253C163.844 44.3802 164.08 44.7285 164.705 44.8962C167.796 45.7246 171.117 44.4808 171.117 42.4944C171.117 40.6964 170.753 40.183 168.758 39.1724C166.584 38.0706 166.64 37.2932 168.872 37.5925C170.188 37.769 170.381 37.6901 170.581 36.8924C170.705 36.3981 170.694 35.8113 170.556 35.5889C170.175 34.9714 166.058 35.0931 165.121 35.7497ZM173.274 35.9778C171.26 37.5619 172.193 40.0938 175.232 41.2935C177.387 42.1445 176.614 42.9029 174.067 42.437C172.728 42.192 172.561 42.2559 172.224 43.1406C171.719 44.4694 172.203 44.846 174.678 45.0512C177.32 45.2702 178.988 44.4778 179.35 42.8317C179.694 41.2645 178.737 39.8526 176.82 39.0996C174.755 38.2885 174.795 37.3089 176.882 37.5887C178.276 37.7755 178.472 37.6993 178.798 36.8414C179.33 35.4419 178.974 35.1842 176.506 35.1842C174.837 35.1842 174.032 35.3818 173.274 35.9778ZM182.7 35.5782C180.591 36.4257 179.698 40.0104 180.944 42.6231C182.118 45.0853 186.032 45.9087 188.044 44.1172C189 43.265 189.875 41.2962 189.875 39.9947C189.875 38.5369 188.763 36.5191 187.571 35.8151C186.419 35.1349 184.085 35.0212 182.7 35.5782ZM192.85 35.8522C191.793 36.5076 190.641 38.7662 190.641 40.1807C190.641 42.7796 193.062 45.1332 195.738 45.1358C197.809 45.1381 198.62 44.6164 198.393 43.4281C198.23 42.5718 198.017 42.4577 196.589 42.4577C194.716 42.4577 193.703 41.6075 193.703 40.0349C193.703 38.4454 194.986 37.4 196.572 37.6974C197.745 37.9175 197.905 37.8425 198.124 36.9681C198.259 36.4318 198.256 35.8113 198.119 35.5889C197.719 34.9419 194.02 35.1268 192.85 35.8522ZM199.828 39.9694V44.7546H201.168H202.508V39.9694V35.1842H201.168H199.828V39.9694ZM221.648 39.9694V44.7546H222.988H224.328V39.9694V35.1842H222.988H221.648V39.9694ZM227.934 35.9058C225.449 37.4214 225.146 41.5382 227.356 43.7485C228.401 44.7928 228.817 44.946 230.612 44.946C232.939 44.946 234.038 44.2393 234.908 42.1828C235.597 40.5559 235.566 39.2248 234.804 37.6178C233.685 35.2604 230.354 34.4305 227.934 35.9058ZM237.448 35.4943C236.945 35.8144 236.835 37.1017 236.912 41.7878L236.961 44.7546H238.301H239.641V41.1178C239.641 37.7812 239.701 37.4811 240.379 37.4811C241.857 37.4811 242.32 38.4929 242.32 41.7192V44.7546H243.66H245V40.9092C245 37.3364 244.933 36.9969 244.06 36.124C243.246 35.309 242.775 35.185 240.519 35.19C239.089 35.1934 237.707 35.3301 237.448 35.4943ZM158.08 39.2995C158.094 39.5954 157.59 39.778 156.762 39.778C155.21 39.778 155.211 39.7818 156.073 37.3751L156.729 35.546L157.394 37.1837C157.76 38.084 158.068 39.0365 158.08 39.2995ZM186.216 38.3321C187.383 39.997 186.711 42.4577 185.09 42.4577C183.469 42.4577 182.797 39.997 183.963 38.3321C184.291 37.8639 184.798 37.4811 185.09 37.4811C185.382 37.4811 185.889 37.8639 186.216 38.3321ZM231.667 38.1147C233.046 39.3626 232.317 42.4577 230.645 42.4577C229.024 42.4577 228.351 39.997 229.518 38.3321C230.229 37.3165 230.729 37.266 231.667 38.1147ZM92.6406 41.8835C92.6406 42.8872 91.8153 43.1544 90.7664 42.4906C89.9598 41.9795 90.5692 40.9264 91.6717 40.9264C92.45 40.9264 92.6406 41.1148 92.6406 41.8835ZM124.414 41.8835C124.414 42.8872 123.589 43.1544 122.54 42.4906C121.733 41.9795 122.343 40.9264 123.445 40.9264C124.223 40.9264 124.414 41.1148 124.414 41.8835ZM209.398 41.8835C209.398 42.6269 209.202 42.8405 208.518 42.8405C208.034 42.8405 207.444 42.6472 207.208 42.411C206.516 41.7189 207.094 40.9264 208.291 40.9264C209.217 40.9264 209.398 41.083 209.398 41.8835Z" fill="#0083C7"/>
</svg>
