<?xml version="1.0" encoding="UTF-8"?>
<svg width="150px" height="38px" viewBox="0 0 150 38" version="1.1" xmlns="http://www.w3.org/2000/svg" xmlns:xlink="http://www.w3.org/1999/xlink">
    <title>Plitio logo</title>
    <g id="Symbols" stroke="none" stroke-width="1" fill="none" fill-rule="evenodd">
        <g id="Menu" transform="translate(-50.000000, -43.000000)" fill-rule="nonzero">
            <g id="Plitio-logo" transform="translate(50.000000, 43.000000)">
                <g id="Group" transform="translate(44.863459, 0.000000)">
                    <path d="M105.136541,24.5021432 C105.136541,27.1156321 104.71767,29.4113383 103.881298,31.387892 C103.043556,33.3644457 101.796526,34.9026785 100.138839,35.9998507 C98.4811513,37.0970229 96.4306013,37.6462939 93.9858202,37.6462939 C91.5246127,37.6462939 89.4740627,37.0929136 87.8328015,35.9875229 C86.1915402,34.8821322 84.9568299,33.3411599 84.1286706,31.3632365 C83.3005112,29.3866828 82.8857471,27.0909766 82.8857471,24.4774877 C82.8857471,21.8982426 83.3046178,19.6189735 84.1409903,17.6424198 C84.9787316,15.6658661 86.2216551,14.1248939 87.8697607,13.0181334 C89.5192351,11.9127426 91.5574653,11.3593624 93.9844513,11.3593624 C96.4456588,11.3593624 98.5044218,11.9168519 100.162109,13.0304611 C101.819797,14.1454401 103.06272,15.6905216 103.89088,17.6670753 C104.723146,19.643629 105.136541,21.9215284 105.136541,24.5021432 Z M89.2906357,24.5021432 C89.2906357,25.9938044 89.4165707,27.3841037 89.6670718,28.6730414 C89.9175729,29.9633488 90.3870913,30.9975124 91.0728894,31.7769019 C91.7586875,32.5562914 92.7387901,32.9453013 94.0104596,32.9453013 C95.2821291,32.9453013 96.2622317,32.5562914 96.9480298,31.7769019 C97.6338279,30.9975124 98.1074529,29.9633488 98.367536,28.6730414 C98.6276191,27.382734 98.7562918,25.9924346 98.7562918,24.5021432 C98.7562918,23.0282889 98.6262502,21.6462081 98.367536,20.3559007 C98.1074529,19.0655932 97.6351967,18.0232111 96.9480298,17.2273846 C96.2608629,16.4315581 95.2821291,16.0343297 94.0104596,16.0343297 C92.7374213,16.0343297 91.7586875,16.4329278 91.0728894,17.2273846 C90.3857225,18.0232111 89.9175729,19.0655932 89.6670718,20.3559007 C89.4165707,21.6462081 89.2906357,23.0282889 89.2906357,24.5021432 Z" id="Shape" fill="#DB9635"></path>
                    <path d="M71.2696144,7.7144494 C70.9342441,6.9610852 70.7672434,6.12416606 70.7672434,5.20232223 C70.7672434,4.2804784 70.9342441,3.44355926 71.2696144,2.68882531 C71.621411,2.48747161 72.0895606,2.32858025 72.675432,2.21215124 C73.2613034,2.09435247 73.8389617,2.03545309 74.4084068,2.03545309 C74.9436305,2.03545309 75.5212887,2.09435247 76.1413816,2.21215124 C76.7601056,2.32858025 77.229624,2.48747161 77.5471992,2.68882531 C77.6977736,3.05728889 77.819602,3.47232408 77.9113155,3.93256112 C78.0030291,4.39416791 78.0495702,4.81742161 78.0495702,5.20232223 C78.0495702,6.12416606 77.8743564,6.9610852 77.5225598,7.7144494 C77.2378372,7.89936606 76.7820073,8.05825742 76.1537013,8.19249322 C75.5253953,8.32672903 74.9436305,8.39384693 74.4084068,8.39384693 C73.8389617,8.39384693 73.2571969,8.33494754 72.6631123,8.21714878 C72.0690277,8.10071977 71.6036159,7.93360989 71.2696144,7.7144494 Z M34.9811773,32.3672655 C34.2611578,32.3672655 33.7382538,32.170021 33.4124655,31.7769019 C33.0853084,31.3837828 32.9224142,30.8098562 32.9224142,30.0551223 L32.9224142,3.86955248 C32.9224142,2.47925309 32.6801263,1.48755185 32.1941815,0.891709261 C31.7082368,0.29723642 30.8294297,0 29.5577602,0 L27.1718399,0 L26.8446828,0.327370988 L26.8446828,31.3111859 C26.8446828,33.3055464 27.2840863,34.7835099 28.1628934,35.7478161 C29.0430694,36.7107525 30.4187721,37.1915359 32.2941082,37.1915359 C33.0812018,37.1915359 33.901148,37.1504433 34.7553157,37.0668883 C35.6094833,36.9819636 36.3623555,36.8901902 37.0153009,36.7901982 C37.082375,36.5724075 37.120703,36.3463982 37.1289162,36.1121704 C37.1371293,35.8765729 37.1412359,35.6423451 37.1412359,35.4081173 C37.1412359,34.3027266 36.9824483,33.2891093 36.6648732,32.3672655 L34.9811773,32.3672655 L34.9811773,32.3672655 Z M41.3326804,8.21714878 C41.926765,8.33494754 42.5085298,8.39384693 43.077975,8.39384693 C43.6131986,8.39384693 44.1949634,8.32672903 44.8232695,8.19249322 C45.4515755,8.05825742 45.9074053,7.89936606 46.1921279,7.7144494 C46.5439245,6.9610852 46.7191384,6.12416606 46.7191384,5.20232223 C46.7191384,4.81742161 46.6725972,4.39416791 46.5808837,3.93256112 C46.4891702,3.47232408 46.3673418,3.05728889 46.2167673,2.68882531 C45.8991922,2.48747161 45.4296737,2.32858025 44.8109497,2.21215124 C44.1908569,2.09435247 43.6131986,2.03545309 43.077975,2.03545309 C42.5085298,2.03545309 41.9308716,2.09435247 41.3450002,2.21215124 C40.7591288,2.32858025 40.2909792,2.48747161 39.9391826,2.68882531 C39.6038122,3.44355926 39.4368115,4.2804784 39.4368115,5.20232223 C39.4368115,6.12416606 39.6038122,6.9610852 39.9391826,7.7144494 C40.273184,7.93360989 40.7385959,8.10071977 41.3326804,8.21714878 Z M77.3090178,13.2181173 C76.4808585,12.3140803 75.354288,11.8620617 73.9306752,11.8620617 L73.0778764,11.8620617 C72.6412106,11.8620617 72.0936672,11.882608 71.4325086,11.9237006 C70.77135,11.966163 70.1047159,12.0209531 69.4353441,12.088071 C69.3354175,12.4894087 69.2642368,12.8797883 69.2218022,13.2564704 C69.1807364,13.6331525 69.1602036,14.0057253 69.1602036,14.3741889 C69.1602036,15.1289229 69.2519171,15.8411945 69.4353441,16.5110037 L70.0636501,16.5110037 C70.9178178,16.5110037 71.5036892,16.7493408 71.8212644,17.2260148 C72.1402084,17.7040587 72.298996,18.3793469 72.298996,19.2491402 L72.298996,36.9655266 C72.7507192,37.0490815 73.2530903,37.1079809 73.8061091,37.1422248 C74.3577591,37.1750988 74.9025647,37.1915359 75.4377884,37.1915359 C75.9908072,37.1915359 76.5383505,37.1750988 77.0831562,37.1422248 C77.626593,37.1079809 78.1166443,37.0490815 78.5519413,36.9655266 L78.5519413,16.9369969 C78.5519413,15.3631506 78.1371772,14.1235241 77.3090178,13.2181173 Z M42.6002434,11.8620617 L41.7474446,11.8620617 C41.3107787,11.8620617 40.7632353,11.882608 40.1020767,11.9237006 C39.4409181,11.966163 38.774284,12.0209531 38.1049123,12.088071 C38.0049856,12.4894087 37.933805,12.8797883 37.8927392,13.2564704 C37.8503046,13.6331525 37.8297717,14.0057253 37.8297717,14.3741889 C37.8297717,15.1289229 37.9214852,15.8411945 38.1049123,16.5110037 L38.7332183,16.5110037 C39.5873859,16.5110037 40.1732574,16.7493408 40.4908325,17.2260148 C40.8097765,17.7040587 40.9685641,18.3793469 40.9685641,19.2491402 L40.9685641,36.9655266 C41.4202874,37.0490815 41.9226584,37.1079809 42.4756772,37.1422248 C43.0273272,37.1750988 43.5721328,37.1915359 44.1073565,37.1915359 C44.6603753,37.1915359 45.2079187,37.1750988 45.7527243,37.1422248 C46.2961611,37.1079809 46.7862125,37.0490815 47.2215094,36.9655266 L47.2215094,16.9369969 C47.2215094,15.3631506 46.8067453,14.1235241 45.978586,13.2181173 C45.1504266,12.3140803 44.0238561,11.8620617 42.6002434,11.8620617 Z M22.9612314,5.40093643 C24.0535804,7.21175001 24.5997549,9.50471668 24.5997549,12.2812062 C24.5997549,14.9686618 24.057687,17.2219056 22.97492,19.0395679 C21.8907841,20.8586 20.3959907,22.2338321 18.4891709,23.1638945 C16.5823511,24.0966963 14.4031285,24.5624124 11.9501341,24.5624124 L6.84839875,24.5624124 L6.84839875,36.9504593 C6.31043739,37.0573001 5.72456598,37.124418 5.08941566,37.151813 C4.45289649,37.1792081 3.89440225,37.1915359 3.40982636,37.1915359 C2.94441449,37.1915359 2.3941334,37.1792081 1.75898309,37.151813 C1.12246392,37.124418 0.536592507,37.0573001 0,36.9504593 L0,0.538312964 L0.37643607,0.187656173 C2.48858463,0.152042593 4.47069165,0.112319753 6.32412597,0.0671179013 C8.17756029,0.0232858025 10.0528963,0 11.9501341,0 C14.4031285,0 16.5782445,0.44790926 18.4768512,1.34372778 C20.3740889,2.2395463 21.8688824,3.59286235 22.9612314,5.40093643 Z M17.5364454,12.2538111 C17.5364454,11.2689587 17.3845021,10.2430136 17.0792467,9.17734569 C16.7753601,8.11167779 16.1840133,7.206271 15.306575,6.46249507 C14.4305056,5.7200889 13.1862133,5.34751606 11.5750669,5.34751606 L9.31918823,5.34751606 C8.49513545,5.34751606 7.67108267,5.32970927 6.84839875,5.29409569 L6.84839875,19.2957118 C7.71077956,19.2751655 8.56084065,19.2559889 9.39858202,19.2409216 C10.4019552,19.2231148 11.1260814,19.2148963 11.5750669,19.2148963 C13.2040085,19.2148963 14.4524074,18.8423235 15.3202636,18.0985476 C16.1894887,17.3561414 16.7753601,16.4507346 17.0792467,15.3850667 C17.3845021,14.3193988 17.5364454,13.2756469 17.5364454,12.2538111 Z M60.4255179,12.0949198 L60.4255179,4.7242784 L60.0737213,4.39827717 L57.7138093,4.39827717 C56.440771,4.39827717 55.5619639,4.69551359 55.077388,5.28998643 C54.5914432,5.88445927 54.3491553,6.87753026 54.3491553,8.26782964 L54.3491553,12.0634155 L50.5560486,11.9867093 C50.3890479,12.7414432 50.3055475,13.4865889 50.3055475,14.2235161 C50.3055475,15.0439982 50.3890479,15.8069506 50.5560486,16.5110037 L54.3491553,16.4315581 L54.3491553,31.3111859 C54.3491553,33.3055464 54.8378378,34.7835099 55.8179404,35.7478161 C56.7966742,36.7107525 58.2408198,37.1915359 60.1503774,37.1915359 C61.1537506,37.1915359 62.1790256,37.1504433 63.2262023,37.0668883 C64.2720101,36.9819636 65.239793,36.8901902 66.1268133,36.7901982 C66.1596659,36.5724075 66.1897808,36.3463982 66.2144202,36.1121704 C66.2404285,35.8765729 66.2527483,35.6423451 66.2527483,35.4081173 C66.2527483,34.3191636 66.0843787,33.3055464 65.7503772,32.3672655 L62.5609371,32.3672655 C61.7738435,32.3672655 61.2208246,32.1659118 60.9032495,31.7645741 C60.5843055,31.3618667 60.4255179,30.8098562 60.4255179,30.1058031 L60.4255179,16.404163 L66.5292577,16.5110037 C66.7126847,15.8069506 66.8043982,15.0439982 66.8043982,14.2235161 C66.8043982,13.4865889 66.7126847,12.7414432 66.5292577,11.9867093 L60.4255179,12.0949198 Z" id="Shape" fill="#004080"></path>
                </g>
                <g id="icon">
                    <path d="M10.9570551,12.5883766 C11.5539743,14.8786649 12.9865802,17.757259 15.2891787,21.3035118 C16.9221299,23.8127046 18.5495922,25.9579686 19.3207843,26.9471433 L15.2754564,32.5141582 C13.7399334,34.6265866 11.3097177,35.8880238 8.77658493,35.8880238 C7.23145629,35.8880238 5.76454463,35.4187473 4.53228395,34.5280796 L4.37036105,34.4117866 C2.75799324,33.2474883 1.71784447,31.4880434 1.44202665,29.4577042 C1.16346438,27.4041064 1.69726105,25.32725 2.94736069,23.6088498 L10.9570551,12.5883766 M12.2030381,8.5400116 L1.8372283,22.8057439 C-1.17481201,26.9485115 -0.40361991,32.6523417 3.56623549,35.5199906 L3.72953061,35.6376517 C5.24447024,36.7321742 7.00778313,37.2561769 8.77658493,37.2561769 C11.6431691,37.2561769 14.5234755,35.8784467 16.386961,33.3172641 L21.1225196,26.7993828 C21.0141136,26.7952783 20.9098243,26.7405522 20.8370962,26.6543585 C20.8137683,26.6269955 18.614087,23.8947938 16.4404779,20.5578684 C13.5011657,16.0306498 12.0081817,12.5965855 12.0081817,10.3405011 C12.0081817,9.72620033 12.0767931,9.12421297 12.2030381,8.5400116 L12.2030381,8.5400116 Z" id="Shape" fill="#004080"></path>
                    <path d="M23.0326609,1.36815309 C26.9997718,1.36815309 30.2258797,4.58604916 30.2258797,8.5400116 C30.2258797,9.86848825 29.541138,12.5459639 26.2820966,17.7517864 C25.0512082,19.7164542 23.8052252,21.4676902 23.0285442,22.5239044 C22.2518632,21.4758991 21.0072525,19.741081 19.7818529,17.7900947 C16.5228116,12.6075307 15.8380699,9.89858762 15.8380699,8.5400116 C15.8380699,4.58604916 19.0655499,1.36815309 23.0326609,1.36815309 M23.0326609,12.8907384 C25.525999,12.8907384 27.5541519,10.8686082 27.5541519,8.382674 C27.5541519,5.89673983 25.525999,3.87460956 23.0326609,3.87460956 C20.5393227,3.87460956 18.5111699,5.89673983 18.5111699,8.382674 C18.5111699,10.8686082 20.5393227,12.8907384 23.0326609,12.8907384 M23.0326609,0 C18.3094524,0 14.4672142,3.83082866 14.4672142,8.5400116 C14.4672142,10.7783101 15.8641422,14.1343896 18.6195759,18.5165839 C20.6545899,21.752266 22.7170485,24.3832244 22.7376319,24.4092193 C22.8089877,24.4995174 22.9173937,24.5528754 23.0326609,24.5528754 C23.0326609,24.5528754 23.0326609,24.5528754 23.0340331,24.5528754 C23.1493003,24.5528754 23.2577063,24.4995174 23.3290621,24.4078512 C23.3496455,24.3818563 25.4121041,21.724903 27.4471181,18.4755394 C30.2025518,14.075559 31.5994798,10.7317929 31.5994798,8.53864345 C31.5981076,3.83082866 27.7558694,0 23.0326609,0 L23.0326609,0 Z M23.0326609,11.5225853 C21.2967926,11.5225853 19.8833978,10.1133877 19.8833978,8.382674 C19.8833978,6.65196033 21.2967926,5.24276265 23.0326609,5.24276265 C24.7685292,5.24276265 26.181924,6.65196033 26.181924,8.382674 C26.181924,10.1147558 24.7685292,11.5225853 23.0326609,11.5225853 L23.0326609,11.5225853 Z" id="_x3C_Compound_Path_x3E_" fill="#DB9635"></path>
                </g>
            </g>
        </g>
    </g>
</svg>